<?xml version="1.0" encoding="utf-8" ?>
<svg xmlns="http://www.w3.org/2000/svg" xmlns:xlink="http://www.w3.org/1999/xlink" width="512" height="512">
	<path fill="#07F49E" d="M0 0L0 512L512 512L512 0L0 0Z"/>
	<path fill="#004D2F" d="M329.812 369.15L335.426 369.157C337.589 369.146 339.862 369.056 341.958 369.671L342.262 369.762C354.299 373.186 355.065 381.478 355.069 391.536L355.057 402.13C352.942 402.45 350.513 402.26 348.361 402.267L157.107 402.227C156.848 399.936 156.965 397.549 156.961 395.241L156.98 386.066C157.352 373.737 165.981 369.259 177.171 369.213L184.932 369.323C185.79 368.28 186.211 366.43 186.755 365.15L198.484 338.688C195.281 338.46 192.01 338.585 188.796 338.583L107.028 338.612C103.008 338.631 98.6708 339.016 94.7612 337.973C85.2605 335.438 76.7963 326.195 76.0205 316.139C75.8508 313.938 75.9913 311.627 75.9993 309.419L76.0348 134.654C76.0931 120.246 83.7788 108.713 98.9004 107.203L405.892 107.172C409.419 107.173 413.835 106.703 417.236 107.678C428.228 110.831 436.07 120.19 436.196 131.86L436.218 310.604C436.218 313.242 436.316 315.969 435.941 318.584C434.633 327.74 425.644 336.262 416.768 338.126C412.817 338.956 408.348 338.582 404.314 338.583L313.646 338.773C314.182 339.625 314.304 340.369 314.684 341.272L326.736 369.101C327.638 369.08 328.768 368.923 329.644 369.103L329.812 369.15ZM106.93 138.26C106.876 150.007 106.588 307.026 107.02 307.823L404.39 307.805L405.258 138.289C403.944 137.917 401.735 138.217 400.316 138.226L106.93 138.26Z"/>
	<path fill="#004D2F" d="M257.264 264.764L256.127 265.208C255.232 265.129 254.473 264.545 253.725 264.08L229.729 249.751L212.746 281.856C211.19 284.632 209.629 287.455 207.694 289.987C202.291 284.865 193.237 273.932 189.491 268.076C190.6 265.488 192.614 262.931 194.191 260.577L206.342 243.173C200.681 241.551 195.141 238.834 189.913 236.132C181.878 231.981 180.286 229.589 176.133 221.786C175.713 220.996 175.58 220.078 174.956 219.399L218.311 221.799C220.583 215.877 223.575 210.314 226.379 204.635L250.106 155.243C251.87 151.557 253.349 147.334 255.698 144.001L294.669 222.258C298.305 221.48 302.243 221.358 305.949 220.982L332.487 219.15C334.247 219.118 336.049 219.181 337.767 218.746L333.329 225.58C332.074 227.566 330.957 229.993 329.397 231.738C326.816 234.626 310.16 241.67 306.483 243.04L322.994 268.06L304.163 290.24L282.477 250.148L257.264 264.764ZM255.851 198.659L240.289 231.222C242.273 232.168 244.147 233.36 246.067 234.429L253.192 238.24C254.244 238.814 255.208 239.964 256.437 239.64L272.509 230.979L255.851 198.659Z"/>
</svg>
